<svg width="48" height="48" viewBox="0 0 48 48" fill="none" xmlns="http://www.w3.org/2000/svg">
<circle cx="24" cy="24" r="23" stroke="url(#paint0_linear_16_101874)" stroke-width="2"/>
<path fill-rule="evenodd" clip-rule="evenodd" d="M34.4902 9.37106C32.5066 8.48974 30.3105 8 28 8C19.1634 8 12 15.1634 12 24C12 32.8366 19.1634 40 28 40C30.3105 40 32.5066 39.5103 34.4902 38.6289C31.5366 40.7506 27.9142 42 24 42C14.0589 42 6 33.9411 6 24C6 14.0589 14.0589 6 24 6C27.9142 6 31.5366 7.24936 34.4902 9.37106Z" fill="url(#paint1_linear_16_101874)"/>
<path fill-rule="evenodd" clip-rule="evenodd" d="M19.841 12.6219C21.3838 11.9364 23.0919 11.5555 24.8889 11.5555C31.7618 11.5555 37.3333 17.1271 37.3333 24C37.3333 30.8729 31.7618 36.4444 24.8889 36.4444C23.0918 36.4444 21.3837 36.0635 19.841 35.378C22.1382 37.0283 24.9556 38 28 38C35.732 38 42 31.732 42 24C42 16.268 35.732 10 28 10C24.9556 10 22.1382 10.9717 19.841 12.6219Z" fill="url(#paint2_linear_16_101874)"/>
<path d="M29.2343 24.2481C29.3189 23.9825 29.5432 23.7692 29.8177 23.7692C29.8281 23.7692 29.8384 23.7695 29.8486 23.7701C29.8588 23.7695 29.8691 23.7692 29.8794 23.7692H31.997C32.2894 23.7692 32.5264 24.0103 32.5264 24.3077C32.5264 24.6051 32.2894 24.8462 31.997 24.8462H30.145C29.6265 26.111 28.3991 27 26.9676 27C25.0671 27 23.5264 25.433 23.5264 23.5C23.5264 21.567 25.0671 20 26.9676 20C28.5791 20 29.9319 21.1267 30.3061 22.6479C30.3822 22.9572 30.1312 23.2308 29.8177 23.2308C29.5432 23.2308 29.3189 23.0175 29.2343 22.7519C28.9243 21.7798 28.0267 21.0769 26.9676 21.0769C25.6519 21.0769 24.5853 22.1618 24.5853 23.5C24.5853 24.8382 25.6519 25.9231 26.9676 25.9231C28.0267 25.9231 28.9243 25.2202 29.2343 24.2481Z" fill="url(#paint3_linear_16_101874)"/>
<path fill-rule="evenodd" clip-rule="evenodd" d="M17.8046 25L17.1673 26.6172C17.0762 26.8482 16.8532 27 16.605 27C16.1785 27 15.8862 26.5703 16.0428 26.1736L18.0864 21C18.3364 20.37 18.7964 20.13 19.5064 20.13C20.2064 20.13 20.6664 20.37 20.9064 21L22.8713 26.1708C23.0235 26.5712 22.7277 27 22.2994 27C22.0449 27 21.8169 26.8424 21.727 26.6042L21.1214 25H17.8046ZM18.1987 24L19.1564 21.57C19.2264 21.41 19.3364 21.34 19.4964 21.34C19.6564 21.34 19.7664 21.41 19.8264 21.57L20.7438 24H18.1987Z" fill="url(#paint4_linear_16_101874)"/>
<defs>
<linearGradient id="paint0_linear_16_101874" x1="1.89736e-07" y1="21.8182" x2="48.0019" y2="21.7291" gradientUnits="userSpaceOnUse">
<stop stop-color="#FA9E13"/>
<stop offset="1" stop-color="#FFC701"/>
</linearGradient>
<linearGradient id="paint1_linear_16_101874" x1="6" y1="22.3636" x2="34.4913" y2="22.3218" gradientUnits="userSpaceOnUse">
<stop stop-color="#FA9E13"/>
<stop offset="1" stop-color="#FFC701"/>
</linearGradient>
<linearGradient id="paint2_linear_16_101874" x1="42" y1="22.7273" x2="19.8401" y2="22.6947" gradientUnits="userSpaceOnUse">
<stop stop-color="#FA9E13"/>
<stop offset="1" stop-color="#FFC701"/>
</linearGradient>
<linearGradient id="paint3_linear_16_101874" x1="23.5264" y1="23.1818" x2="32.5268" y2="23.1603" gradientUnits="userSpaceOnUse">
<stop stop-color="#FA9E13"/>
<stop offset="1" stop-color="#FFC701"/>
</linearGradient>
<linearGradient id="paint4_linear_16_101874" x1="16" y1="23.2527" x2="22.9121" y2="23.2398" gradientUnits="userSpaceOnUse">
<stop stop-color="#FA9E13"/>
<stop offset="1" stop-color="#FFC701"/>
</linearGradient>
</defs>
</svg>
