<svg width="560" height="512" viewBox="0 0 560 512" fill="none" xmlns="http://www.w3.org/2000/svg">
<g clip-path="url(#clip0_109_4838)">
<rect width="560" height="512" rx="10" fill="#0F0B0A"/>
<mask id="mask0_109_4838" style="mask-type:alpha" maskUnits="userSpaceOnUse" x="-181" y="48" width="922" height="527">
<rect width="922" height="527" transform="translate(-181 48)" fill="url(#paint0_linear_109_4838)"/>
</mask>
<g mask="url(#mask0_109_4838)">
<path opacity="0.1" d="M12.6912 391.627L0 410.253V1031H560V184L548.102 214.935H535.411L529.462 243.901H521.53C519.415 248.728 515.026 258.384 514.391 258.384C513.756 258.384 509.632 264.177 507.649 267.074L490.595 275.763L480.68 287.35L464.816 275.763L456.487 267.074L444.589 287.35H432.295L421.983 267.074C418.017 264.177 409.926 258.384 409.292 258.384C408.657 258.384 403.475 252.591 400.963 249.694H394.618L379.547 258.384L366.459 267.074L360.51 287.35L342.663 296.04L333.541 304.729L323.229 319.212L313.314 353.972H308.952L297.054 345.282L285.552 319.212L275.637 304.729H269.688L259.377 296.04L244.703 304.729H230.822L216.941 319.212L203.059 336.592L192.748 353.972L181.643 362.661L166.572 353.972L154.674 362.661L142.776 371.351L131.671 362.661L116.601 382.938L103.909 371.351L91.2181 382.938H78.9235L65.8357 391.627H52.3513L38.8669 400.317L25.779 382.938L12.6912 391.627Z" fill="url(#paint1_linear_109_4838)"/>
</g>
<path d="M0 410L12.6912 391.313L25.779 382.594L38.8669 400.031L52.3513 391.313H65.8357L78.9235 382.594H91.2181L103.909 370.969L116.601 382.594L131.671 362.251L142.776 370.969L154.674 362.251L166.572 353.533L181.643 362.251L192.748 353.533L203.059 336.096L216.941 318.659L230.822 304.128H244.703L259.377 295.409L269.688 304.128H275.637L285.552 318.659L297.054 344.814L308.952 353.533H313.314L323.229 318.659L333.541 304.128L342.663 295.409L360.51 286.691L366.459 266.348L379.547 257.629L394.618 248.911H400.963C403.475 251.817 408.657 257.629 409.292 257.629C409.926 257.629 418.017 263.442 421.983 266.348L432.295 286.691H444.589L456.487 266.348L464.816 275.066L480.68 286.691L490.595 275.066L507.649 266.348C509.632 263.442 513.756 257.629 514.391 257.629C515.026 257.629 519.415 247.942 521.53 243.098H529.462L535.411 214.037H548.102L560 183" stroke="url(#paint2_linear_109_4838)" stroke-width="2" stroke-linecap="round" stroke-linejoin="round"/>
<g filter="url(#filter0_f_109_4838)">
<path d="M0 410L12.6912 391.313L25.779 382.594L38.8669 400.031L52.3513 391.313H65.8357L78.9235 382.594H91.2181L103.909 370.969L116.601 382.594L131.671 362.251L142.776 370.969L154.674 362.251L166.572 353.533L181.643 362.251L192.748 353.533L203.059 336.096L216.941 318.659L230.822 304.128H244.703L259.377 295.409L269.688 304.128H275.637L285.552 318.659L297.054 344.814L308.952 353.533H313.314L323.229 318.659L333.541 304.128L342.663 295.409L360.51 286.691L366.459 266.348L379.547 257.629L394.618 248.911H400.963C403.475 251.817 408.657 257.629 409.292 257.629C409.926 257.629 418.017 263.442 421.983 266.348L432.295 286.691H444.589L456.487 266.348L464.816 275.066L480.68 286.691L490.595 275.066L507.649 266.348C509.632 263.442 513.756 257.629 514.391 257.629C515.026 257.629 519.415 247.942 521.53 243.098H529.462L535.411 214.037H548.102L560 183" stroke="url(#paint3_linear_109_4838)" stroke-width="2" stroke-linecap="round" stroke-linejoin="round"/>
</g>
<path fill-rule="evenodd" clip-rule="evenodd" d="M146 138C140.477 138 136 142.477 136 148V244C136 249.523 140.477 254 146 254H229.716L251.627 275.912C254.752 279.036 259.817 279.036 262.941 275.912L284.853 254H319C324.523 254 329 249.523 329 244V148C329 142.477 324.523 138 319 138H146Z" fill="#1F1714"/>
<path d="M151.928 165.369V158.489H153.489V165.369H151.928ZM149.268 162.71V161.148H156.148V162.71H149.268ZM165.939 156.818V167H164.094V158.613H164.035L161.653 160.134V158.444L164.184 156.818H165.939ZM172.287 167.194C171.469 167.194 170.766 166.987 170.18 166.572C169.596 166.155 169.147 165.553 168.832 164.768C168.521 163.979 168.365 163.029 168.365 161.919C168.368 160.809 168.526 159.864 168.837 159.085C169.152 158.303 169.601 157.706 170.184 157.295C170.771 156.884 171.472 156.679 172.287 156.679C173.103 156.679 173.804 156.884 174.39 157.295C174.977 157.706 175.426 158.303 175.738 159.085C176.053 159.867 176.21 160.812 176.21 161.919C176.21 163.033 176.053 163.984 175.738 164.773C175.426 165.558 174.977 166.158 174.39 166.572C173.807 166.987 173.106 167.194 172.287 167.194ZM172.287 165.638C172.924 165.638 173.426 165.325 173.794 164.698C174.165 164.068 174.351 163.142 174.351 161.919C174.351 161.11 174.266 160.431 174.097 159.881C173.928 159.33 173.689 158.916 173.381 158.638C173.073 158.356 172.708 158.215 172.287 158.215C171.654 158.215 171.154 158.53 170.786 159.16C170.418 159.786 170.233 160.706 170.229 161.919C170.226 162.731 170.307 163.414 170.473 163.967C170.642 164.521 170.881 164.938 171.189 165.22C171.497 165.499 171.863 165.638 172.287 165.638ZM185.222 159.364V160.756H180.708V159.364H185.222ZM181.837 167V158.643C181.837 158.129 181.943 157.701 182.155 157.36C182.37 157.019 182.659 156.763 183.02 156.594C183.381 156.425 183.782 156.341 184.223 156.341C184.535 156.341 184.811 156.366 185.053 156.415C185.295 156.465 185.474 156.51 185.59 156.55L185.232 157.942C185.156 157.919 185.06 157.895 184.944 157.872C184.828 157.846 184.699 157.832 184.556 157.832C184.221 157.832 183.984 157.914 183.845 158.076C183.709 158.235 183.641 158.464 183.641 158.762V167H181.837ZM186.632 167V159.364H188.431V167H186.632ZM187.537 158.28C187.252 158.28 187.006 158.185 186.801 157.996C186.595 157.804 186.493 157.574 186.493 157.305C186.493 157.034 186.595 156.803 186.801 156.614C187.006 156.422 187.252 156.326 187.537 156.326C187.825 156.326 188.07 156.422 188.272 156.614C188.478 156.803 188.581 157.034 188.581 157.305C188.581 157.574 188.478 157.804 188.272 157.996C188.07 158.185 187.825 158.28 187.537 158.28ZM192.082 156.818V167H190.282V156.818H192.082ZM195.732 156.818V167H193.933V156.818H195.732ZM200.964 167.149C200.198 167.149 199.537 166.99 198.98 166.672C198.426 166.35 198.001 165.896 197.702 165.31C197.404 164.72 197.255 164.025 197.255 163.227C197.255 162.441 197.404 161.752 197.702 161.158C198.004 160.562 198.425 160.098 198.965 159.766C199.505 159.432 200.14 159.264 200.869 159.264C201.34 159.264 201.784 159.34 202.202 159.493C202.622 159.642 202.994 159.874 203.315 160.189C203.64 160.504 203.895 160.905 204.081 161.392C204.266 161.876 204.359 162.453 204.359 163.122V163.674H198.1V162.461H202.634C202.631 162.116 202.556 161.81 202.41 161.541C202.265 161.269 202.061 161.056 201.799 160.9C201.54 160.744 201.239 160.666 200.894 160.666C200.526 160.666 200.203 160.756 199.925 160.935C199.646 161.11 199.429 161.342 199.273 161.631C199.121 161.916 199.043 162.229 199.04 162.57V163.629C199.04 164.073 199.121 164.455 199.283 164.773C199.446 165.088 199.673 165.33 199.964 165.499C200.256 165.664 200.597 165.747 200.988 165.747C201.25 165.747 201.487 165.711 201.699 165.638C201.912 165.562 202.095 165.451 202.251 165.305C202.407 165.159 202.525 164.978 202.604 164.763L204.285 164.952C204.179 165.396 203.976 165.784 203.678 166.115C203.383 166.443 203.005 166.698 202.545 166.881C202.084 167.06 201.557 167.149 200.964 167.149ZM210.749 163.788V159.364H212.549V167H210.804V165.643H210.724C210.552 166.07 210.268 166.42 209.874 166.692C209.483 166.964 209.001 167.099 208.427 167.099C207.927 167.099 207.484 166.988 207.1 166.766C206.719 166.541 206.42 166.214 206.205 165.787C205.989 165.356 205.882 164.836 205.882 164.226V159.364H207.681V163.947C207.681 164.431 207.814 164.816 208.079 165.101C208.344 165.386 208.692 165.528 209.123 165.528C209.388 165.528 209.645 165.464 209.894 165.335C210.142 165.205 210.346 165.013 210.505 164.758C210.668 164.499 210.749 164.176 210.749 163.788ZM216.199 156.818V167H214.399V156.818H216.199ZM224.085 161.382L222.445 161.561C222.398 161.395 222.317 161.24 222.201 161.094C222.088 160.948 221.936 160.83 221.744 160.741C221.551 160.651 221.316 160.607 221.038 160.607C220.663 160.607 220.348 160.688 220.093 160.85C219.841 161.013 219.717 161.223 219.72 161.482C219.717 161.704 219.798 161.884 219.964 162.023C220.133 162.163 220.411 162.277 220.799 162.366L222.102 162.645C222.824 162.801 223.361 163.048 223.712 163.386C224.067 163.724 224.246 164.166 224.249 164.713C224.246 165.194 224.105 165.618 223.827 165.986C223.552 166.35 223.169 166.635 222.678 166.841C222.188 167.046 221.624 167.149 220.988 167.149C220.053 167.149 219.301 166.954 218.731 166.562C218.161 166.168 217.821 165.62 217.712 164.917L219.467 164.748C219.546 165.093 219.715 165.353 219.974 165.528C220.232 165.704 220.569 165.792 220.983 165.792C221.411 165.792 221.754 165.704 222.012 165.528C222.274 165.353 222.405 165.136 222.405 164.877C222.405 164.658 222.32 164.478 222.151 164.335C221.986 164.193 221.727 164.083 221.376 164.007L220.073 163.734C219.341 163.581 218.799 163.324 218.447 162.963C218.096 162.598 217.922 162.138 217.925 161.581C217.922 161.11 218.05 160.703 218.308 160.358C218.57 160.01 218.933 159.741 219.397 159.553C219.864 159.36 220.403 159.264 221.013 159.264C221.908 159.264 222.612 159.455 223.126 159.836C223.643 160.217 223.963 160.732 224.085 161.382Z" fill="url(#paint4_linear_109_4838)"/>
<path d="M151.928 189.369V182.489H153.489V189.369H151.928ZM149.268 186.71V185.148H156.148V186.71H149.268ZM165.939 180.818V191H164.094V182.613H164.035L161.653 184.134V182.444L164.184 180.818H165.939ZM172.253 191.139C171.765 191.136 171.29 191.051 170.826 190.886C170.362 190.717 169.944 190.443 169.573 190.065C169.202 189.684 168.907 189.179 168.688 188.549C168.469 187.916 168.362 187.132 168.365 186.197C168.365 185.326 168.458 184.549 168.643 183.866C168.829 183.183 169.096 182.606 169.444 182.136C169.792 181.662 170.211 181.3 170.702 181.052C171.195 180.803 171.747 180.679 172.357 180.679C172.997 180.679 173.564 180.805 174.057 181.057C174.555 181.309 174.956 181.653 175.26 182.091C175.565 182.525 175.754 183.016 175.827 183.562H174.013C173.92 183.171 173.729 182.86 173.441 182.628C173.156 182.393 172.795 182.275 172.357 182.275C171.651 182.275 171.108 182.581 170.726 183.195C170.349 183.808 170.158 184.65 170.155 185.72H170.224C170.387 185.429 170.597 185.178 170.856 184.969C171.114 184.761 171.406 184.6 171.731 184.487C172.059 184.371 172.405 184.313 172.77 184.313C173.366 184.313 173.902 184.456 174.376 184.741C174.853 185.026 175.231 185.419 175.509 185.919C175.787 186.416 175.925 186.986 175.922 187.629C175.925 188.299 175.773 188.9 175.464 189.434C175.156 189.964 174.727 190.382 174.177 190.687C173.626 190.992 172.985 191.143 172.253 191.139ZM172.243 189.648C172.604 189.648 172.927 189.56 173.212 189.384C173.497 189.209 173.723 188.972 173.888 188.673C174.054 188.375 174.135 188.04 174.132 187.669C174.135 187.304 174.056 186.975 173.893 186.68C173.734 186.385 173.514 186.151 173.232 185.979C172.95 185.806 172.629 185.72 172.268 185.72C171.999 185.72 171.749 185.772 171.517 185.874C171.285 185.977 171.083 186.12 170.91 186.302C170.738 186.481 170.602 186.69 170.503 186.928C170.407 187.164 170.357 187.415 170.354 187.684C170.357 188.039 170.44 188.365 170.602 188.663C170.765 188.962 170.988 189.2 171.273 189.379C171.558 189.558 171.881 189.648 172.243 189.648ZM181.366 191.194C180.547 191.194 179.844 190.987 179.258 190.572C178.674 190.155 178.225 189.553 177.91 188.768C177.599 187.979 177.443 187.029 177.443 185.919C177.446 184.809 177.604 183.864 177.915 183.085C178.23 182.303 178.679 181.706 179.263 181.295C179.849 180.884 180.55 180.679 181.366 180.679C182.181 180.679 182.882 180.884 183.469 181.295C184.055 181.706 184.504 182.303 184.816 183.085C185.131 183.867 185.288 184.812 185.288 185.919C185.288 187.033 185.131 187.984 184.816 188.773C184.504 189.558 184.055 190.158 183.469 190.572C182.885 190.987 182.184 191.194 181.366 191.194ZM181.366 189.638C182.002 189.638 182.504 189.325 182.872 188.698C183.243 188.068 183.429 187.142 183.429 185.919C183.429 185.11 183.344 184.431 183.175 183.881C183.006 183.33 182.768 182.916 182.459 182.638C182.151 182.356 181.787 182.215 181.366 182.215C180.733 182.215 180.232 182.53 179.864 183.16C179.496 183.786 179.311 184.706 179.307 185.919C179.304 186.731 179.385 187.414 179.551 187.967C179.72 188.521 179.959 188.938 180.267 189.22C180.575 189.499 180.941 189.638 181.366 189.638ZM193.502 184.353L193.02 185.412H186.423L186.816 184.353H193.502ZM192.583 186.406L192.071 187.48H186.423L186.816 186.406H192.583ZM194.755 181.643L194.059 183.125C193.9 182.999 193.72 182.876 193.517 182.757C193.315 182.638 193.092 182.538 192.846 182.459C192.601 182.379 192.333 182.339 192.041 182.339C191.547 182.339 191.111 182.47 190.733 182.732C190.355 182.991 190.059 183.385 189.843 183.915C189.631 184.442 189.525 185.11 189.525 185.919C189.525 186.728 189.631 187.396 189.843 187.923C190.059 188.45 190.355 188.841 190.733 189.096C191.111 189.351 191.547 189.479 192.041 189.479C192.333 189.479 192.601 189.441 192.846 189.364C193.092 189.288 193.312 189.192 193.507 189.076C193.706 188.96 193.877 188.844 194.02 188.728L194.725 190.21C194.371 190.518 193.962 190.75 193.498 190.906C193.037 191.061 192.551 191.139 192.041 191.139C191.192 191.139 190.44 190.932 189.784 190.518C189.131 190.1 188.619 189.502 188.248 188.723C187.876 187.941 187.691 187.006 187.691 185.919C187.691 184.829 187.876 183.892 188.248 183.11C188.619 182.328 189.131 181.728 189.784 181.31C190.44 180.889 191.192 180.679 192.041 180.679C192.571 180.679 193.063 180.763 193.517 180.933C193.975 181.098 194.387 181.335 194.755 181.643ZM206.835 184.07C206.752 183.801 206.638 183.561 206.492 183.349C206.349 183.133 206.177 182.949 205.975 182.797C205.776 182.644 205.547 182.53 205.289 182.454C205.03 182.374 204.749 182.335 204.444 182.335C203.897 182.335 203.41 182.472 202.982 182.747C202.555 183.022 202.218 183.427 201.973 183.96C201.731 184.491 201.61 185.137 201.61 185.899C201.61 186.668 201.731 187.319 201.973 187.853C202.215 188.387 202.551 188.793 202.982 189.071C203.413 189.346 203.913 189.484 204.483 189.484C205.001 189.484 205.448 189.384 205.826 189.185C206.207 188.987 206.5 188.705 206.706 188.34C206.911 187.972 207.014 187.541 207.014 187.048L207.432 187.112H204.667V185.67H208.799V186.893C208.799 187.765 208.613 188.519 208.242 189.156C207.871 189.792 207.36 190.282 206.711 190.627C206.061 190.969 205.315 191.139 204.474 191.139C203.536 191.139 202.712 190.929 202.003 190.508C201.297 190.084 200.745 189.482 200.347 188.703C199.953 187.921 199.756 186.993 199.756 185.919C199.756 185.097 199.872 184.363 200.104 183.717C200.339 183.07 200.667 182.522 201.088 182.071C201.509 181.617 202.003 181.272 202.569 181.037C203.136 180.798 203.753 180.679 204.419 180.679C204.982 180.679 205.508 180.762 205.995 180.928C206.482 181.09 206.915 181.322 207.292 181.624C207.674 181.925 207.987 182.283 208.232 182.697C208.477 183.112 208.638 183.569 208.714 184.07H206.835ZM212.7 191.154C212.216 191.154 211.781 191.068 211.393 190.896C211.008 190.72 210.703 190.461 210.478 190.12C210.256 189.779 210.145 189.358 210.145 188.857C210.145 188.426 210.224 188.07 210.384 187.788C210.543 187.507 210.76 187.281 211.035 187.112C211.31 186.943 211.62 186.816 211.964 186.729C212.313 186.64 212.672 186.575 213.043 186.536C213.491 186.489 213.854 186.448 214.132 186.411C214.411 186.371 214.613 186.312 214.739 186.232C214.868 186.149 214.933 186.022 214.933 185.849V185.82C214.933 185.445 214.821 185.155 214.599 184.95C214.377 184.744 214.058 184.641 213.64 184.641C213.199 184.641 212.849 184.737 212.591 184.93C212.336 185.122 212.163 185.349 212.074 185.611L210.393 185.372C210.526 184.908 210.745 184.52 211.05 184.209C211.355 183.894 211.728 183.659 212.168 183.503C212.609 183.344 213.096 183.264 213.63 183.264C213.998 183.264 214.364 183.307 214.729 183.393C215.093 183.48 215.426 183.622 215.728 183.821C216.03 184.017 216.272 184.283 216.454 184.621C216.639 184.96 216.732 185.382 216.732 185.889V191H215.002V189.951H214.942C214.833 190.163 214.679 190.362 214.48 190.548C214.285 190.73 214.038 190.877 213.739 190.99C213.444 191.099 213.098 191.154 212.7 191.154ZM213.168 189.832C213.529 189.832 213.842 189.76 214.107 189.618C214.372 189.472 214.576 189.28 214.719 189.041C214.865 188.803 214.938 188.542 214.938 188.261V187.361C214.881 187.407 214.785 187.45 214.649 187.49C214.517 187.53 214.367 187.565 214.202 187.594C214.036 187.624 213.872 187.651 213.71 187.674C213.547 187.697 213.406 187.717 213.287 187.734C213.018 187.77 212.778 187.83 212.566 187.913C212.354 187.996 212.187 188.112 212.064 188.261C211.941 188.406 211.88 188.595 211.88 188.827C211.88 189.159 212.001 189.409 212.243 189.578C212.485 189.747 212.793 189.832 213.168 189.832ZM221.863 194.023C221.217 194.023 220.661 193.935 220.197 193.759C219.733 193.587 219.361 193.355 219.079 193.063C218.797 192.772 218.602 192.448 218.492 192.094L220.113 191.701C220.186 191.85 220.292 191.998 220.431 192.143C220.57 192.293 220.758 192.415 220.993 192.511C221.232 192.611 221.531 192.661 221.893 192.661C222.403 192.661 222.826 192.536 223.161 192.288C223.495 192.042 223.663 191.638 223.663 191.075V189.628H223.573C223.48 189.813 223.344 190.004 223.165 190.2C222.99 190.395 222.756 190.559 222.464 190.692C222.176 190.824 221.813 190.891 221.376 190.891C220.789 190.891 220.257 190.753 219.78 190.478C219.306 190.2 218.928 189.785 218.646 189.235C218.368 188.682 218.229 187.989 218.229 187.157C218.229 186.318 218.368 185.611 218.646 185.034C218.928 184.454 219.308 184.015 219.785 183.717C220.262 183.415 220.794 183.264 221.381 183.264C221.828 183.264 222.196 183.34 222.484 183.493C222.776 183.642 223.008 183.823 223.18 184.035C223.353 184.244 223.484 184.441 223.573 184.626H223.673V183.364H225.447V191.124C225.447 191.777 225.292 192.317 224.98 192.745C224.669 193.173 224.243 193.492 223.702 193.705C223.162 193.917 222.549 194.023 221.863 194.023ZM221.878 189.479C222.259 189.479 222.584 189.386 222.852 189.2C223.121 189.015 223.325 188.748 223.464 188.4C223.603 188.052 223.673 187.634 223.673 187.147C223.673 186.666 223.603 186.246 223.464 185.884C223.328 185.523 223.126 185.243 222.857 185.044C222.592 184.842 222.266 184.741 221.878 184.741C221.477 184.741 221.142 184.845 220.874 185.054C220.605 185.263 220.403 185.549 220.267 185.914C220.131 186.275 220.063 186.686 220.063 187.147C220.063 187.614 220.131 188.024 220.267 188.375C220.406 188.723 220.61 188.995 220.879 189.19C221.15 189.383 221.483 189.479 221.878 189.479ZM229.092 186.526V191H227.292V183.364H229.012V184.661H229.102C229.277 184.234 229.557 183.894 229.942 183.642C230.33 183.39 230.808 183.264 231.379 183.264C231.906 183.264 232.365 183.377 232.756 183.602C233.15 183.828 233.455 184.154 233.67 184.582C233.889 185.009 233.997 185.528 233.994 186.138V191H232.194V186.416C232.194 185.906 232.061 185.506 231.796 185.218C231.534 184.93 231.171 184.786 230.707 184.786C230.393 184.786 230.112 184.855 229.867 184.994C229.625 185.13 229.435 185.327 229.295 185.586C229.16 185.844 229.092 186.158 229.092 186.526ZM239.204 191.149C238.438 191.149 237.777 190.99 237.22 190.672C236.667 190.35 236.241 189.896 235.942 189.31C235.644 188.72 235.495 188.025 235.495 187.227C235.495 186.441 235.644 185.752 235.942 185.158C236.244 184.562 236.665 184.098 237.205 183.766C237.746 183.432 238.38 183.264 239.109 183.264C239.58 183.264 240.024 183.34 240.442 183.493C240.863 183.642 241.234 183.874 241.555 184.189C241.88 184.504 242.135 184.905 242.321 185.392C242.507 185.876 242.599 186.453 242.599 187.122V187.674H236.34V186.461H240.874C240.871 186.116 240.796 185.81 240.651 185.541C240.505 185.269 240.301 185.056 240.039 184.9C239.781 184.744 239.479 184.666 239.134 184.666C238.766 184.666 238.443 184.756 238.165 184.935C237.886 185.11 237.669 185.342 237.513 185.631C237.361 185.916 237.283 186.229 237.28 186.57V187.629C237.28 188.073 237.361 188.455 237.523 188.773C237.686 189.088 237.913 189.33 238.205 189.499C238.496 189.664 238.838 189.747 239.229 189.747C239.491 189.747 239.728 189.711 239.94 189.638C240.152 189.562 240.336 189.451 240.491 189.305C240.647 189.159 240.765 188.978 240.844 188.763L242.525 188.952C242.419 189.396 242.217 189.784 241.918 190.115C241.623 190.443 241.246 190.698 240.785 190.881C240.324 191.06 239.797 191.149 239.204 191.149ZM238.369 182.359L239.482 180.087H241.242L239.716 182.359H238.369Z" fill="white"/>
<path d="M152.634 224.818V235H151.401V226.111H151.341L148.855 227.761V226.509L151.401 224.818H152.634ZM155.562 235V234.105L158.923 230.426C159.317 229.995 159.642 229.621 159.897 229.303C160.152 228.981 160.341 228.679 160.464 228.398C160.59 228.113 160.653 227.814 160.653 227.503C160.653 227.145 160.567 226.835 160.394 226.573C160.225 226.311 159.993 226.109 159.698 225.967C159.403 225.824 159.072 225.753 158.704 225.753C158.313 225.753 157.971 225.834 157.68 225.996C157.391 226.156 157.168 226.379 157.009 226.668C156.853 226.956 156.775 227.294 156.775 227.682H155.602C155.602 227.085 155.739 226.562 156.014 226.111C156.289 225.66 156.664 225.309 157.138 225.057C157.615 224.805 158.15 224.679 158.744 224.679C159.34 224.679 159.869 224.805 160.33 225.057C160.79 225.309 161.152 225.648 161.413 226.076C161.675 226.504 161.806 226.979 161.806 227.503C161.806 227.877 161.738 228.244 161.602 228.602C161.47 228.956 161.238 229.352 160.906 229.79C160.578 230.224 160.122 230.754 159.539 231.381L157.252 233.827V233.906H161.985V235H155.562ZM171.297 235H168.155V224.818H171.436C172.424 224.818 173.269 225.022 173.972 225.43C174.674 225.834 175.213 226.416 175.587 227.175C175.962 227.93 176.149 228.835 176.149 229.889C176.149 230.95 175.96 231.863 175.582 232.629C175.205 233.391 174.654 233.978 173.932 234.388C173.209 234.796 172.331 235 171.297 235ZM169.388 233.906H171.217C172.059 233.906 172.757 233.744 173.31 233.419C173.864 233.094 174.277 232.632 174.548 232.032C174.82 231.432 174.956 230.718 174.956 229.889C174.956 229.067 174.822 228.36 174.553 227.766C174.285 227.17 173.884 226.712 173.35 226.394C172.817 226.073 172.152 225.912 171.357 225.912H169.388V233.906ZM181.26 235.159C180.524 235.159 179.889 234.997 179.356 234.672C178.826 234.344 178.416 233.886 178.128 233.3C177.843 232.71 177.7 232.024 177.7 231.241C177.7 230.459 177.843 229.77 178.128 229.173C178.416 228.573 178.817 228.106 179.331 227.771C179.848 227.433 180.451 227.264 181.141 227.264C181.538 227.264 181.931 227.33 182.319 227.463C182.707 227.596 183.06 227.811 183.378 228.109C183.696 228.404 183.95 228.795 184.138 229.283C184.327 229.77 184.422 230.37 184.422 231.082V231.58H178.536V230.565H183.229C183.229 230.134 183.143 229.75 182.97 229.412C182.801 229.074 182.559 228.807 182.244 228.612C181.933 228.416 181.565 228.318 181.141 228.318C180.673 228.318 180.269 228.434 179.928 228.666C179.589 228.895 179.329 229.193 179.147 229.561C178.965 229.929 178.874 230.323 178.874 230.744V231.42C178.874 231.997 178.973 232.486 179.172 232.887C179.374 233.285 179.654 233.588 180.012 233.797C180.37 234.002 180.786 234.105 181.26 234.105C181.568 234.105 181.847 234.062 182.095 233.976C182.347 233.886 182.564 233.754 182.746 233.578C182.929 233.399 183.07 233.177 183.169 232.912L184.303 233.23C184.183 233.615 183.983 233.953 183.701 234.244C183.419 234.533 183.071 234.758 182.657 234.92C182.243 235.08 181.777 235.159 181.26 235.159ZM189.309 235.159C188.593 235.159 187.977 234.99 187.46 234.652C186.942 234.314 186.545 233.848 186.266 233.255C185.988 232.662 185.849 231.984 185.849 231.222C185.849 230.446 185.991 229.762 186.276 229.168C186.565 228.572 186.966 228.106 187.479 227.771C187.996 227.433 188.6 227.264 189.289 227.264C189.826 227.264 190.31 227.364 190.741 227.562C191.172 227.761 191.525 228.04 191.8 228.398C192.075 228.756 192.246 229.173 192.312 229.651H191.138C191.049 229.303 190.85 228.994 190.542 228.726C190.237 228.454 189.826 228.318 189.309 228.318C188.852 228.318 188.451 228.437 188.106 228.676C187.764 228.911 187.498 229.245 187.305 229.675C187.116 230.103 187.022 230.605 187.022 231.182C187.022 231.772 187.115 232.286 187.3 232.723C187.489 233.161 187.754 233.5 188.096 233.742C188.441 233.984 188.845 234.105 189.309 234.105C189.614 234.105 189.891 234.052 190.139 233.946C190.388 233.84 190.598 233.688 190.771 233.489C190.943 233.29 191.066 233.051 191.138 232.773H192.312C192.246 233.223 192.081 233.629 191.82 233.991C191.561 234.349 191.218 234.634 190.79 234.846C190.366 235.055 189.872 235.159 189.309 235.159ZM197.945 235V234.105L201.305 230.426C201.7 229.995 202.025 229.621 202.28 229.303C202.535 228.981 202.724 228.679 202.847 228.398C202.973 228.113 203.036 227.814 203.036 227.503C203.036 227.145 202.949 226.835 202.777 226.573C202.608 226.311 202.376 226.109 202.081 225.967C201.786 225.824 201.455 225.753 201.087 225.753C200.696 225.753 200.354 225.834 200.062 225.996C199.774 226.156 199.55 226.379 199.391 226.668C199.236 226.956 199.158 227.294 199.158 227.682H197.984C197.984 227.085 198.122 226.562 198.397 226.111C198.672 225.66 199.047 225.309 199.521 225.057C199.998 224.805 200.533 224.679 201.126 224.679C201.723 224.679 202.252 224.805 202.712 225.057C203.173 225.309 203.534 225.648 203.796 226.076C204.058 226.504 204.189 226.979 204.189 227.503C204.189 227.877 204.121 228.244 203.985 228.602C203.853 228.956 203.621 229.352 203.289 229.79C202.961 230.224 202.505 230.754 201.922 231.381L199.635 233.827V233.906H204.368V235H197.945ZM209.742 235.139C208.993 235.139 208.355 234.935 207.828 234.528C207.301 234.117 206.898 233.522 206.62 232.743C206.342 231.961 206.202 231.016 206.202 229.909C206.202 228.809 206.342 227.869 206.62 227.09C206.902 226.308 207.306 225.711 207.833 225.3C208.363 224.886 209 224.679 209.742 224.679C210.485 224.679 211.119 224.886 211.646 225.3C212.177 225.711 212.581 226.308 212.859 227.09C213.141 227.869 213.282 228.809 213.282 229.909C213.282 231.016 213.143 231.961 212.864 232.743C212.586 233.522 212.183 234.117 211.656 234.528C211.129 234.935 210.491 235.139 209.742 235.139ZM209.742 234.045C210.485 234.045 211.061 233.687 211.472 232.972C211.883 232.256 212.089 231.235 212.089 229.909C212.089 229.027 211.994 228.277 211.805 227.657C211.62 227.037 211.351 226.565 211 226.24C210.652 225.915 210.233 225.753 209.742 225.753C209.006 225.753 208.431 226.116 208.017 226.842C207.603 227.564 207.396 228.587 207.396 229.909C207.396 230.791 207.488 231.54 207.674 232.156C207.86 232.773 208.126 233.242 208.474 233.563C208.826 233.885 209.248 234.045 209.742 234.045ZM215.171 235V234.105L218.532 230.426C218.926 229.995 219.251 229.621 219.506 229.303C219.762 228.981 219.951 228.679 220.073 228.398C220.199 228.113 220.262 227.814 220.262 227.503C220.262 227.145 220.176 226.835 220.004 226.573C219.835 226.311 219.603 226.109 219.308 225.967C219.013 225.824 218.681 225.753 218.313 225.753C217.922 225.753 217.581 225.834 217.289 225.996C217.001 226.156 216.777 226.379 216.618 226.668C216.462 226.956 216.384 227.294 216.384 227.682H215.211C215.211 227.085 215.348 226.562 215.624 226.111C215.899 225.66 216.273 225.309 216.747 225.057C217.224 224.805 217.76 224.679 218.353 224.679C218.95 224.679 219.478 224.805 219.939 225.057C220.4 225.309 220.761 225.648 221.023 226.076C221.285 226.504 221.415 226.979 221.415 227.503C221.415 227.877 221.348 228.244 221.212 228.602C221.079 228.956 220.847 229.352 220.516 229.79C220.188 230.224 219.732 230.754 219.148 231.381L216.862 233.827V233.906H221.594V235H215.171ZM227.088 235.139C226.432 235.139 225.847 235.027 225.333 234.801C224.823 234.576 224.417 234.263 224.115 233.862C223.817 233.457 223.654 232.988 223.628 232.455H224.881C224.907 232.783 225.02 233.066 225.219 233.305C225.418 233.54 225.678 233.722 225.999 233.852C226.321 233.981 226.677 234.045 227.068 234.045C227.506 234.045 227.893 233.969 228.232 233.817C228.57 233.664 228.835 233.452 229.027 233.18C229.219 232.909 229.315 232.594 229.315 232.236C229.315 231.861 229.223 231.531 229.037 231.246C228.851 230.958 228.58 230.733 228.222 230.57C227.864 230.408 227.426 230.327 226.909 230.327H226.094V229.233H226.909C227.313 229.233 227.668 229.16 227.973 229.014C228.281 228.868 228.522 228.663 228.694 228.398C228.87 228.133 228.957 227.821 228.957 227.463C228.957 227.118 228.881 226.818 228.729 226.563C228.576 226.308 228.361 226.109 228.082 225.967C227.807 225.824 227.482 225.753 227.108 225.753C226.757 225.753 226.425 225.817 226.114 225.947C225.805 226.073 225.554 226.257 225.358 226.499C225.162 226.737 225.056 227.026 225.04 227.364H223.847C223.866 226.83 224.027 226.363 224.329 225.962C224.63 225.557 225.025 225.242 225.512 225.017C226.003 224.792 226.541 224.679 227.128 224.679C227.758 224.679 228.298 224.807 228.749 225.062C229.199 225.314 229.546 225.647 229.788 226.061C230.03 226.475 230.151 226.923 230.151 227.403C230.151 227.977 230 228.466 229.698 228.87C229.4 229.274 228.994 229.554 228.48 229.71V229.79C229.123 229.896 229.625 230.169 229.987 230.61C230.348 231.048 230.528 231.589 230.528 232.236C230.528 232.789 230.378 233.286 230.076 233.727C229.778 234.165 229.37 234.509 228.853 234.761C228.336 235.013 227.748 235.139 227.088 235.139Z" fill="#8B7F7F"/>
</g>
<rect x="2" y="2" width="556" height="508" rx="8" stroke="#4A4341" stroke-width="4"/>
<defs>
<filter id="filter0_f_109_4838" x="-11.0001" y="172" width="582" height="249" filterUnits="userSpaceOnUse" color-interpolation-filters="sRGB">
<feFlood flood-opacity="0" result="BackgroundImageFix"/>
<feBlend mode="normal" in="SourceGraphic" in2="BackgroundImageFix" result="shape"/>
<feGaussianBlur stdDeviation="5" result="effect1_foregroundBlur_109_4838"/>
</filter>
<linearGradient id="paint0_linear_109_4838" x1="461" y1="0" x2="461" y2="527" gradientUnits="userSpaceOnUse">
<stop/>
<stop offset="1" stop-opacity="0"/>
</linearGradient>
<linearGradient id="paint1_linear_109_4838" x1="2.21358e-06" y1="569" x2="560.023" y2="568.313" gradientUnits="userSpaceOnUse">
<stop stop-color="#FA9E13"/>
<stop offset="1" stop-color="#FFC701"/>
</linearGradient>
<linearGradient id="paint2_linear_109_4838" x1="2.21358e-06" y1="286.182" x2="560.012" y2="283.619" gradientUnits="userSpaceOnUse">
<stop stop-color="#FA9E13"/>
<stop offset="1" stop-color="#FFC701"/>
</linearGradient>
<linearGradient id="paint3_linear_109_4838" x1="2.21358e-06" y1="286.182" x2="560.012" y2="283.619" gradientUnits="userSpaceOnUse">
<stop stop-color="#FA9E13"/>
<stop offset="1" stop-color="#FFC701"/>
</linearGradient>
<linearGradient id="paint4_linear_109_4838" x1="148" y1="160.909" x2="225.001" y2="160.451" gradientUnits="userSpaceOnUse">
<stop stop-color="#FA9E13"/>
<stop offset="1" stop-color="#FFC701"/>
</linearGradient>
<clipPath id="clip0_109_4838">
<rect width="560" height="512" rx="10" fill="white"/>
</clipPath>
</defs>
</svg>
